<mxfile host="app.diagrams.net" agent="Mozilla/5.0 (Windows NT 10.0; Win64; x64) AppleWebKit/537.36 (KHTML, like Gecko) Chrome/134.0.0.0 Safari/537.36" version="26.2.2">
  <diagram name="Page-1" id="2ktIEbyDi7EM9VHLP-Pl">
    <mxGraphModel dx="1556" dy="855" grid="1" gridSize="10" guides="1" tooltips="1" connect="1" arrows="1" fold="1" page="1" pageScale="1" pageWidth="850" pageHeight="1100" math="0" shadow="0">
      <root>
        <mxCell id="0" />
        <mxCell id="1" parent="0" />
        <mxCell id="9P8Fp_5M-LNfbwDmpt04-5" style="edgeStyle=orthogonalEdgeStyle;rounded=0;orthogonalLoop=1;jettySize=auto;html=1;exitX=0.5;exitY=1;exitDx=0;exitDy=0;entryX=0.5;entryY=0;entryDx=0;entryDy=0;" parent="1" source="9P8Fp_5M-LNfbwDmpt04-1" target="9P8Fp_5M-LNfbwDmpt04-3" edge="1">
          <mxGeometry relative="1" as="geometry" />
        </mxCell>
        <mxCell id="9P8Fp_5M-LNfbwDmpt04-1" value="Login" style="rounded=0;whiteSpace=wrap;html=1;" parent="1" vertex="1">
          <mxGeometry x="380" y="80" width="120" height="60" as="geometry" />
        </mxCell>
        <mxCell id="9P8Fp_5M-LNfbwDmpt04-6" style="edgeStyle=orthogonalEdgeStyle;rounded=0;orthogonalLoop=1;jettySize=auto;html=1;exitX=1;exitY=0.5;exitDx=0;exitDy=0;entryX=1;entryY=0.5;entryDx=0;entryDy=0;" parent="1" source="9P8Fp_5M-LNfbwDmpt04-3" target="9P8Fp_5M-LNfbwDmpt04-1" edge="1">
          <mxGeometry relative="1" as="geometry">
            <Array as="points">
              <mxPoint x="570" y="220" />
              <mxPoint x="570" y="110" />
            </Array>
          </mxGeometry>
        </mxCell>
        <mxCell id="9P8Fp_5M-LNfbwDmpt04-10" value="Try Again" style="edgeLabel;html=1;align=center;verticalAlign=middle;resizable=0;points=[];" parent="9P8Fp_5M-LNfbwDmpt04-6" vertex="1" connectable="0">
          <mxGeometry x="0.0489" y="1" relative="1" as="geometry">
            <mxPoint as="offset" />
          </mxGeometry>
        </mxCell>
        <mxCell id="9P8Fp_5M-LNfbwDmpt04-11" value="Fail" style="edgeLabel;html=1;align=center;verticalAlign=middle;resizable=0;points=[];" parent="9P8Fp_5M-LNfbwDmpt04-6" vertex="1" connectable="0">
          <mxGeometry x="-0.6785" relative="1" as="geometry">
            <mxPoint as="offset" />
          </mxGeometry>
        </mxCell>
        <mxCell id="9P8Fp_5M-LNfbwDmpt04-9" style="edgeStyle=orthogonalEdgeStyle;rounded=0;orthogonalLoop=1;jettySize=auto;html=1;exitX=0.5;exitY=1;exitDx=0;exitDy=0;entryX=0.5;entryY=0;entryDx=0;entryDy=0;" parent="1" source="9P8Fp_5M-LNfbwDmpt04-3" target="9P8Fp_5M-LNfbwDmpt04-8" edge="1">
          <mxGeometry relative="1" as="geometry" />
        </mxCell>
        <mxCell id="9P8Fp_5M-LNfbwDmpt04-12" style="edgeStyle=orthogonalEdgeStyle;rounded=0;orthogonalLoop=1;jettySize=auto;html=1;exitX=0;exitY=0.5;exitDx=0;exitDy=0;" parent="1" source="9P8Fp_5M-LNfbwDmpt04-3" target="9P8Fp_5M-LNfbwDmpt04-13" edge="1">
          <mxGeometry relative="1" as="geometry">
            <mxPoint x="270" y="220" as="targetPoint" />
          </mxGeometry>
        </mxCell>
        <mxCell id="9P8Fp_5M-LNfbwDmpt04-15" value="No Account" style="edgeLabel;html=1;align=center;verticalAlign=middle;resizable=0;points=[];" parent="9P8Fp_5M-LNfbwDmpt04-12" vertex="1" connectable="0">
          <mxGeometry x="-0.31" y="-1" relative="1" as="geometry">
            <mxPoint x="-9" y="1" as="offset" />
          </mxGeometry>
        </mxCell>
        <mxCell id="9P8Fp_5M-LNfbwDmpt04-3" value="Success" style="rhombus;whiteSpace=wrap;html=1;" parent="1" vertex="1">
          <mxGeometry x="400" y="180" width="80" height="80" as="geometry" />
        </mxCell>
        <mxCell id="9P8Fp_5M-LNfbwDmpt04-8" value="Home Screen" style="rounded=0;whiteSpace=wrap;html=1;" parent="1" vertex="1">
          <mxGeometry x="380" y="360" width="120" height="60" as="geometry" />
        </mxCell>
        <mxCell id="9P8Fp_5M-LNfbwDmpt04-14" style="edgeStyle=orthogonalEdgeStyle;rounded=0;orthogonalLoop=1;jettySize=auto;html=1;exitX=0.5;exitY=1;exitDx=0;exitDy=0;entryX=0;entryY=0.5;entryDx=0;entryDy=0;" parent="1" source="9P8Fp_5M-LNfbwDmpt04-13" target="9P8Fp_5M-LNfbwDmpt04-8" edge="1">
          <mxGeometry relative="1" as="geometry" />
        </mxCell>
        <mxCell id="9P8Fp_5M-LNfbwDmpt04-16" value="Success" style="edgeLabel;html=1;align=center;verticalAlign=middle;resizable=0;points=[];" parent="9P8Fp_5M-LNfbwDmpt04-14" vertex="1" connectable="0">
          <mxGeometry x="-0.564" y="-1" relative="1" as="geometry">
            <mxPoint as="offset" />
          </mxGeometry>
        </mxCell>
        <mxCell id="9P8Fp_5M-LNfbwDmpt04-13" value="Registration" style="rounded=0;whiteSpace=wrap;html=1;" parent="1" vertex="1">
          <mxGeometry x="160" y="190" width="120" height="60" as="geometry" />
        </mxCell>
      </root>
    </mxGraphModel>
  </diagram>
</mxfile>
